<svg width="128" height="22" viewBox="0 0 128 22" fill="none" xmlns="http://www.w3.org/2000/svg">
<g clip-path="url(#clip0_437_38)">
<path d="M8.25 2.35714C7.59688 2.35714 7.07143 2.88259 7.07143 3.53571V18.4643C7.07143 18.8768 7.00268 19.2746 6.87009 19.6429H21.6071C22.2603 19.6429 22.7857 19.1174 22.7857 18.4643V3.53571C22.7857 2.88259 22.2603 2.35714 21.6071 2.35714H8.25ZM3.53571 22C1.58125 22 0 20.4187 0 18.4643V3.92857C0 3.27545 0.525446 2.75 1.17857 2.75C1.8317 2.75 2.35714 3.27545 2.35714 3.92857V18.4643C2.35714 19.1174 2.88259 19.6429 3.53571 19.6429C4.18884 19.6429 4.71429 19.1174 4.71429 18.4643V3.53571C4.71429 1.58125 6.29554 0 8.25 0H21.6071C23.5616 0 25.1429 1.58125 25.1429 3.53571V18.4643C25.1429 20.4187 23.5616 22 21.6071 22H3.53571ZM18.4643 3.92857H20.0357C20.6888 3.92857 21.2143 4.45402 21.2143 5.10714C21.2143 5.76027 20.6888 6.28571 20.0357 6.28571H18.4643C17.8112 6.28571 17.2857 5.76027 17.2857 5.10714C17.2857 4.45402 17.8112 3.92857 18.4643 3.92857ZM18.4643 7.85714H20.0357C20.6888 7.85714 21.2143 8.38259 21.2143 9.03571C21.2143 9.68884 20.6888 10.2143 20.0357 10.2143H18.4643C17.8112 10.2143 17.2857 9.68884 17.2857 9.03571C17.2857 8.38259 17.8112 7.85714 18.4643 7.85714ZM9.82143 15.7143H20.0357C20.6888 15.7143 21.2143 16.2397 21.2143 16.8929C21.2143 17.546 20.6888 18.0714 20.0357 18.0714H9.82143C9.1683 18.0714 8.64286 17.546 8.64286 16.8929C8.64286 16.2397 9.1683 15.7143 9.82143 15.7143Z" fill="#4361EE"/>
</g>
<path d="M35.862 20C35.2586 20 34.7931 19.8423 34.4655 19.527C34.1552 19.195 34 18.7303 34 18.1328V3.94191C34 3.3112 34.1552 2.82988 34.4655 2.49793C34.7931 2.16598 35.2241 2 35.7586 2C36.2241 2 36.5775 2.09129 36.8189 2.27386C37.0775 2.43983 37.3706 2.72199 37.6981 3.12033L46.7754 14.249H46.0771V3.84232C46.0771 3.26141 46.2323 2.81328 46.5426 2.49793C46.8702 2.16598 47.3357 2 47.9391 2C48.5426 2 48.9994 2.16598 49.3098 2.49793C49.6373 2.81328 49.8011 3.26141 49.8011 3.84232V18.2075C49.8011 18.7552 49.6546 19.195 49.3615 19.527C49.0684 19.8423 48.6719 20 48.1719 20C47.6891 20 47.3012 19.9087 47.0081 19.7261C46.7323 19.5436 46.4306 19.2531 46.103 18.8548L37.0516 7.72614H37.724V18.1328C37.724 18.7303 37.5688 19.195 37.2585 19.527C36.9482 19.8423 36.4827 20 35.862 20Z" fill="black"/>
<path d="M55.5663 19.7759C54.894 19.7759 54.3767 19.6017 54.0147 19.2531C53.6526 18.9046 53.4716 18.4066 53.4716 17.7593V4.24066C53.4716 3.59336 53.6526 3.09544 54.0147 2.74689C54.3767 2.39834 54.894 2.22407 55.5663 2.22407H64.5919C65.1091 2.22407 65.497 2.35685 65.7556 2.62241C66.0315 2.87137 66.1694 3.23651 66.1694 3.71784C66.1694 4.21577 66.0315 4.59751 65.7556 4.86307C65.497 5.11203 65.1091 5.23651 64.5919 5.23651H57.299V9.3444H63.9971C64.5315 9.3444 64.9281 9.47718 65.1867 9.74274C65.4625 9.9917 65.6004 10.3651 65.6004 10.8631C65.6004 11.361 65.4625 11.7427 65.1867 12.0083C64.9281 12.2573 64.5315 12.3817 63.9971 12.3817H57.299V16.7635H64.5919C65.1091 16.7635 65.497 16.8963 65.7556 17.1618C66.0315 17.4108 66.1694 17.7759 66.1694 18.2573C66.1694 18.7552 66.0315 19.1369 65.7556 19.4025C65.497 19.6515 65.1091 19.7759 64.5919 19.7759H55.5663Z" fill="black"/>
<path d="M75.8794 20C75.3277 20 74.8795 19.8755 74.5346 19.6266C74.1898 19.361 73.914 18.9627 73.7071 18.4315L68.4832 4.29046C68.259 3.65975 68.3021 3.12033 68.6125 2.6722C68.94 2.22407 69.5004 2 70.2934 2C70.8451 2 71.2675 2.12448 71.5606 2.37344C71.871 2.62241 72.1209 3.01245 72.3106 3.54357L76.5777 15.7676H75.4657L79.9655 3.56847C80.1724 3.03734 80.4224 2.6473 80.7155 2.39834C81.0258 2.13278 81.4309 2 81.9309 2C82.4137 2 82.8016 2.13278 83.0947 2.39834C83.3878 2.6473 83.6378 3.04564 83.8446 3.59336L88.1376 15.7676H87.1807L91.5254 3.54357C91.6978 3.02905 91.9392 2.6473 92.2495 2.39834C92.5598 2.13278 92.9822 2 93.5167 2C94.1891 2 94.6805 2.22407 94.9908 2.6722C95.3011 3.12033 95.3356 3.65975 95.0942 4.29046L89.8186 18.4564C89.6289 18.971 89.3703 19.361 89.0427 19.6266C88.7152 19.8755 88.2669 20 87.698 20C87.1462 20 86.7066 19.8755 86.379 19.6266C86.0515 19.361 85.7842 18.9627 85.5773 18.4315L81.4913 7.3029H82.112L77.9742 18.4564C77.7673 18.971 77.5001 19.361 77.1725 19.6266C76.8621 19.8755 76.4311 20 75.8794 20Z" fill="black"/>
<path d="M99.2868 19.7759C98.7695 19.7759 98.3471 19.6763 98.0196 19.4772C97.692 19.2614 97.4679 18.9793 97.3472 18.6307C97.2437 18.2656 97.2437 17.8672 97.3472 17.4357C97.4679 17.0041 97.7092 16.5726 98.0713 16.1411L107.485 4.26556V5.43568H98.9764C98.4075 5.43568 97.9678 5.29461 97.6575 5.01245C97.3644 4.73029 97.2179 4.33195 97.2179 3.81743C97.2179 3.3029 97.3644 2.91286 97.6575 2.6473C97.9678 2.36515 98.4075 2.22407 98.9764 2.22407H109.373C109.907 2.22407 110.329 2.33195 110.64 2.54772C110.967 2.74689 111.191 3.02075 111.312 3.36929C111.433 3.71784 111.433 4.11618 111.312 4.56432C111.191 4.99585 110.95 5.42739 110.588 5.85892L101.175 17.7095V16.5643H110.097C110.666 16.5643 111.097 16.7054 111.39 16.9876C111.7 17.2531 111.855 17.6432 111.855 18.1577C111.855 18.6888 111.7 19.0954 111.39 19.3776C111.097 19.6432 110.666 19.7759 110.097 19.7759H99.2868Z" fill="black"/>
<path d="M120.344 20C119.689 20 119.189 19.8257 118.844 19.4772C118.499 19.1286 118.327 18.6307 118.327 17.9834V10.7635L119.154 12.9793L113.051 4.639C112.81 4.29046 112.706 3.91701 112.741 3.51867C112.775 3.10373 112.947 2.74689 113.258 2.44813C113.568 2.14938 114.008 2 114.577 2C114.991 2 115.361 2.09959 115.689 2.29876C116.034 2.49793 116.361 2.81328 116.671 3.24481L120.809 8.99585H119.982L124.119 3.24481C124.447 2.79668 124.766 2.48133 125.076 2.29876C125.404 2.09959 125.783 2 126.214 2C126.766 2 127.197 2.14108 127.507 2.42324C127.818 2.6888 127.981 3.02905 127.999 3.44398C128.016 3.84232 127.869 4.25726 127.559 4.6888L121.533 12.9793L122.335 10.7635V17.9834C122.335 19.3278 121.671 20 120.344 20Z" fill="black"/>
<defs>
<clipPath id="clip0_437_38">
<rect width="26" height="22" fill="white"/>
</clipPath>
</defs>
</svg>
